/* XPM */
static char * C:\Users\cryptoknowing\Desktop\Coins\Erstellte\mnsc\3\mnsc\share\pixmaps\mnsavings32_xpm[] = {
"32 32 252 2",
"  	c None",
". 	c #494949",
"+ 	c #2C2C2C",
"@ 	c #313131",
"# 	c #454545",
"$ 	c #4C4C4C",
"% 	c #B1AC98",
"& 	c #DDD6BA",
"* 	c #C4BBA2",
"= 	c #D0C5AC",
"- 	c #B4A89B",
"; 	c #A69A94",
"> 	c #AEA19A",
", 	c #B5A99B",
"' 	c #C9BEAA",
") 	c #B8AE9C",
"! 	c #303030",
"~ 	c #CBC5AA",
"{ 	c #E6DFBF",
"] 	c #E1D8BB",
"^ 	c #DDD3B7",
"/ 	c #C9BDAA",
"( 	c #B2A59C",
"_ 	c #AB9D99",
": 	c #C3B6A6",
"< 	c #D8CDB4",
"[ 	c #DCD2B8",
"} 	c #C3B9A5",
"| 	c #333333",
"1 	c #3B3B3B",
"2 	c #E2DABF",
"3 	c #EEE9CF",
"4 	c #E5DEC5",
"5 	c #DED3BA",
"6 	c #CEC2AD",
"7 	c #B4A69E",
"8 	c #AE9F98",
"9 	c #BCAE9E",
"0 	c #CEC2AA",
"a 	c #D5CAB0",
"b 	c #DBD1B5",
"c 	c #BCAFA0",
"d 	c #3A3A39",
"e 	c #E8E0C3",
"f 	c #F0EACC",
"g 	c #E6DEC1",
"h 	c #DDD1BA",
"i 	c #BFB2A4",
"j 	c #A29390",
"k 	c #AA9B96",
"l 	c #C3B5A7",
"m 	c #CEC1AD",
"n 	c #D1C6B1",
"o 	c #D3C9B0",
"p 	c #BAADA0",
"q 	c #D0C9B1",
"r 	c #F6F0D7",
"s 	c #E5DDC8",
"t 	c #E4DBC5",
"u 	c #C6BBA7",
"v 	c #A39389",
"w 	c #8A7474",
"x 	c #BDADA2",
"y 	c #D3C7B1",
"z 	c #D4CAB3",
"A 	c #E3DABD",
"B 	c #BEB1A3",
"C 	c #E7E0C3",
"D 	c #F3EED4",
"E 	c #ECE4C7",
"F 	c #D4C9B1",
"G 	c #A69591",
"H 	c #81696A",
"I 	c #8C7473",
"J 	c #938182",
"K 	c #B3A59B",
"L 	c #D0C4B1",
"M 	c #D1C5B1",
"N 	c #C0B3A4",
"O 	c #CCC5B0",
"P 	c #F3EED9",
"Q 	c #F4EFD5",
"R 	c #E8E1CA",
"S 	c #D7CDBE",
"T 	c #A79691",
"U 	c #958285",
"V 	c #7E6567",
"W 	c #8B7679",
"X 	c #D7CDB7",
"Y 	c #DBD0B7",
"Z 	c #C1B5A5",
"` 	c #AA9D97",
" .	c #D2CBAF",
"..	c #DCD2BA",
"+.	c #CBBFB0",
"@.	c #F2EACB",
"#.	c #EEE6C8",
"$.	c #D7CDB4",
"%.	c #C2B5A2",
"&.	c #9A887D",
"*.	c #7F6868",
"=.	c #B7A89B",
"-.	c #AF9F97",
";.	c #AF9F98",
">.	c #CBBEAB",
",.	c #C3B7A6",
"'.	c #4D4D4D",
").	c #EBE3C4",
"!.	c #D8CEB8",
"~.	c #D7CDB8",
"{.	c #D4CDB1",
"].	c #CFC7AC",
"^.	c #D4CCB1",
"/.	c #EBE2C3",
"(.	c #E9E1C1",
"_.	c #E5DCBE",
":.	c #E2D9BC",
"<.	c #DBD1B7",
"[.	c #C0B3A2",
"}.	c #BEB1A5",
"|.	c #B6A99B",
"1.	c #4F4F4F",
"2.	c #E9E3C6",
"3.	c #DBD2B9",
"4.	c #E1DABE",
"5.	c #BCB79E",
"6.	c #A9A58F",
"7.	c #9D9A86",
"8.	c #95907E",
"9.	c #BCB69E",
"0.	c #DED6B9",
"a.	c #E9E1C2",
"b.	c #EDE4C4",
"c.	c #EEE5C4",
"d.	c #CABFAE",
"e.	c #A5978E",
"f.	c #652E2D",
"g.	c #D4CBB3",
"h.	c #D2C7B2",
"i.	c #F1EACB",
"j.	c #F1E8C9",
"k.	c #F1E9CA",
"l.	c #E2DABD",
"m.	c #C8C2A8",
"n.	c #AEA891",
"o.	c #8E8A77",
"p.	c #B2AC95",
"q.	c #CCC6AA",
"r.	c #DDD5B8",
"s.	c #BFB5A8",
"t.	c #A79891",
"u.	c #D6CDB3",
"v.	c #D8CEB6",
"w.	c #E5DDC2",
"x.	c #F0E8C9",
"y.	c #EFE7C7",
"z.	c #EFE6C6",
"A.	c #EFE6C7",
"B.	c #F0E7C8",
"C.	c #E2DBBE",
"D.	c #BCB79F",
"E.	c #B2AD95",
"F.	c #B2AE97",
"G.	c #A49591",
"H.	c #AD9F96",
"I.	c #DED5B9",
"J.	c #B3A79A",
"K.	c #917D7F",
"L.	c #AD9F95",
"M.	c #B2A299",
"N.	c #BEB09E",
"O.	c #D3C8AF",
"P.	c #E7DDBF",
"Q.	c #ECE2C2",
"R.	c #ECE4C3",
"S.	c #E7DEBF",
"T.	c #E5DDC1",
"U.	c #8B777B",
"V.	c #AA9C94",
"W.	c #D5CCB3",
"X.	c #CABEAC",
"Y.	c #A2928D",
"Z.	c #B4A59D",
"`.	c #745A5F",
" +	c #684C50",
".+	c #A28F88",
"++	c #7D6565",
"@+	c #917E78",
"#+	c #B1A391",
"$+	c #D8CEB4",
"%+	c #CDC3AD",
"&+	c #887477",
"*+	c #907E80",
"=+	c #C8BDA5",
"-+	c #C2B5A4",
";+	c #B7AA9E",
">+	c #795F65",
",+	c #654349",
"'+	c #B3A59C",
")+	c #81686B",
"!+	c #877275",
"~+	c #867075",
"{+	c #A5958F",
"]+	c #9A8883",
"^+	c #92817E",
"/+	c #8D7B7C",
"(+	c #272727",
"_+	c #BEB2A0",
":+	c #AB9D95",
"<+	c #A99B94",
"[+	c #867274",
"}+	c #816A6E",
"|+	c #67474E",
"1+	c #9A8984",
"2+	c #7F6568",
"3+	c #856F74",
"4+	c #897479",
"5+	c #978685",
"6+	c #6B5050",
"7+	c #826E6E",
"8+	c #A0928E",
"9+	c #373737",
"0+	c #9A8F87",
"a+	c #968887",
"b+	c #867476",
"c+	c #70585C",
"d+	c #674B50",
"e+	c #72575D",
"f+	c #6D5256",
"g+	c #8B7974",
"h+	c #7C6569",
"i+	c #80696D",
"j+	c #88746F",
"k+	c #948479",
"l+	c #A8998F",
"m+	c #A1968E",
"n+	c #642727",
"o+	c #857172",
"p+	c #948182",
"q+	c #8B7677",
"r+	c #775F63",
"s+	c #7D686B",
"t+	c #9B8C83",
"u+	c #BBAF9F",
"v+	c #C7BEAA",
"w+	c #CDC5AD",
"x+	c #723737",
"y+	c #5A5A5A",
"z+	c #6B6B6B",
"A+	c #723C3C",
"B+	c #2C2C2D",
"C+	c #6C4848",
"                                                                ",
"                                                                ",
"                              .                                 ",
"                  +                         @                   ",
"                #                             $                 ",
"                                                                ",
"                                                                ",
"                    % & * = - ; > , ' )                         ",
"        !           ~ { ] ^ / ( _ : < < [ }           |         ",
"      1             2 3 4 5 6 7 8 9 0 a b c             d       ",
"                    e f g h i j k l m n o p                     ",
"                    q r s t u v w x y z A B                     ",
"                    C D E F G H I J K L M N                     ",
"                  O P Q R S T U V W 8 X Y Z `                   ",
"                   ...+.@.#.$.%.&.*.=.-.;.>.,.                  ",
"    '.            ).!.~.{.].^./.(._.:.<.[.}.|.              1.  ",
"                  2.3.4.5.6.7.8.9.0.a.b.c.d.e.              f.  ",
"                  g.h.i.j.k.l.m.n.o.p.q.r.s.t.                  ",
"                  u.v.w.x.y.z.A.B.C.D.E.F.G.H.                  ",
"                  I.J.K.L.M.N.O.P.Q.R.S.T.U.V.                  ",
"                  W.X.Y.Z.`. +.+++@+#+$+%+&+*+                  ",
"                  =+-+;+H.>+,+'+)+!+~+{+]+^+/+                  ",
"      (+          _+:+<+[+}+|+1+2+3+4+5+6+7+8+          9+      ",
"        #         0+a+b+c+d+e+f+g+h+i+j+k+l+m+          n+      ",
"                        o+p+q+r+s+t+u+v+w+                      ",
"                                                                ",
"                                                                ",
"                                                                ",
"                x+y+                        z+A+                ",
"                                                                ",
"                              B+C+                              ",
"                                                                "};
