/* XPM */
static char * C:\Users\cryptoknowing\Desktop\Coins\Erstellte\mnsc\3\mnsc\share\pixmaps\mnsavings16_xpm[] = {
"16 16 61 1",
" 	c None",
".	c #B9B09C",
"+	c #E2DCC0",
"@	c #DBD2B6",
"#	c #BEB0A3",
"$	c #BEB0A4",
"%	c #CBBFA9",
"&	c #C5BAA4",
"*	c #E7E1C6",
"=	c #DAD1B8",
"-	c #B8A99E",
";	c #BAACA1",
">	c #D1C5B0",
",	c #CDC2AD",
"'	c #F0EACF",
")	c #DFD6C1",
"!	c #978483",
"~	c #8A7374",
"{	c #C6B9AA",
"]	c #D2C6B3",
"^	c #756E6A",
"/	c #C8C1AA",
"(	c #D6CCB7",
"_	c #E4DDC0",
":	c #DAD0B6",
"<	c #C3B7A1",
"[	c #C8BBA8",
"}	c #BBADA0",
"|	c #9E9488",
"1	c #E5DDC1",
"2	c #D2CBB0",
"3	c #B7B299",
"4	c #B8B199",
"5	c #DCD4B7",
"6	c #D5CCB5",
"7	c #8C7F7A",
"8	c #C4B9A8",
"9	c #D5CAB3",
"0	c #DED4B8",
"a	c #E9E1C2",
"b	c #CEC6AB",
"c	c #B6AC9C",
"d	c #938680",
"e	c #B8AB9D",
"f	c #93807E",
"g	c #907D78",
"h	c #846D6D",
"i	c #AFA193",
"j	c #A3948C",
"k	c #807171",
"l	c #9C9385",
"m	c #9F908B",
"n	c #7C6569",
"o	c #7B6465",
"p	c #806B6D",
"q	c #917E7C",
"r	c #96847E",
"s	c #837875",
"t	c #5F4C4E",
"u	c #705D60",
"v	c #ADA492",
"                ",
"                ",
"                ",
"      .         ",
"     +@#$%&     ",
"     *=-;>,     ",
"     ')!~{]^    ",
"    /(_:<[}|    ",
"     1234567    ",
"     890abcd    ",
"     efghijk    ",
"    lmnopqrs    ",
"      tu v      ",
"                ",
"                ",
"                "};
